<?xml version="1.0" encoding="UTF-8" standalone="no"?><svg xmlns="http://www.w3.org/2000/svg" xmlns:xlink="http://www.w3.org/1999/xlink" fill="#ffffff" height="358.8" preserveAspectRatio="xMidYMid meet" version="1" viewBox="0.0 0.0 494.3 358.8" width="494.3" zoomAndPan="magnify"><defs><clipPath id="a"><path d="M 0 0 L 249 0 L 249 358.789062 L 0 358.789062 Z M 0 0"/></clipPath><clipPath id="b"><path d="M 227 0 L 494.300781 0 L 494.300781 358.789062 L 227 358.789062 Z M 227 0"/></clipPath></defs><g><g clip-path="url(#a)" id="change1_2"><path d="M 171.566406 97.347656 C 175.007812 71.070312 192.804688 44.371094 213.566406 23.609375 C 223.214844 13.960938 234.328125 5.8125 248.332031 0.0273438 C 248.324219 0.0195312 248.324219 0.015625 248.324219 0.0117188 C 248.320312 0.0117188 248.320312 0.0117188 248.320312 0.0117188 C 248.320312 0.0078125 248.320312 0.00390625 248.316406 -0.00390625 C 181.585938 -0.00390625 0 48.417969 0 225.3125 C 0 299.019531 59.769531 358.789062 133.480469 358.789062 C 135.230469 358.789062 136.984375 358.753906 138.75 358.6875 C 174.339844 357.316406 206.511719 341.710938 229.734375 317.46875 C 232.675781 314.398438 233.113281 309.714844 230.859375 306.105469 C 216.214844 282.640625 207.730469 254.953125 207.730469 225.3125 C 207.730469 194.105469 214.011719 169.160156 228.042969 144.511719 L 228.140625 144.320312 C 228.46875 143.710938 228.8125 143.078125 229.195312 142.441406 C 229.207031 142.421875 229.21875 142.402344 229.230469 142.378906 C 231.4375 138.710938 230.898438 134.007812 227.871094 130.976562 C 212.386719 115.480469 193.125 103.761719 171.566406 97.347656" fill="inherit"/></g><g clip-path="url(#b)" id="change1_1"><path d="M 420.578125 105.9375 C 420.523438 105.910156 420.472656 105.882812 420.417969 105.855469 C 419.796875 105.546875 419.171875 105.238281 418.546875 104.9375 C 418.425781 104.878906 418.304688 104.824219 418.1875 104.765625 C 417.589844 104.480469 416.992188 104.199219 416.390625 103.925781 C 416.265625 103.867188 416.140625 103.8125 416.019531 103.757812 C 414.300781 102.976562 412.5625 102.230469 410.808594 101.519531 C 410.445312 101.375 410.089844 101.226562 409.726562 101.085938 C 409.335938 100.929688 408.945312 100.78125 408.554688 100.632812 C 408.136719 100.472656 407.714844 100.3125 407.296875 100.15625 C 406.929688 100.019531 406.5625 99.886719 406.195312 99.753906 C 405.734375 99.585938 405.273438 99.421875 404.808594 99.261719 C 404.472656 99.140625 404.136719 99.023438 403.796875 98.910156 C 403.269531 98.730469 402.738281 98.554688 402.210938 98.382812 C 401.925781 98.289062 401.648438 98.195312 401.363281 98.105469 C 400.550781 97.847656 399.730469 97.59375 398.910156 97.347656 C 402.351562 71.070312 420.148438 44.371094 440.910156 23.609375 C 450.558594 13.960938 461.675781 5.8125 475.675781 0.0273438 C 475.671875 0.0195312 475.667969 0.015625 475.667969 0.0117188 C 475.664062 0.0117188 475.664062 0.0117188 475.664062 0.0117188 C 475.664062 0.0078125 475.664062 0.00390625 475.65625 -0.00390625 C 409.320312 -0.00390625 229.488281 47.851562 227.367188 222.195312 C 227.355469 223.226562 227.34375 224.261719 227.34375 225.3125 C 227.34375 299.019531 287.113281 358.789062 360.824219 358.789062 C 362.574219 358.789062 364.328125 358.753906 366.09375 358.6875 C 367.234375 358.644531 368.371094 358.585938 369.507812 358.511719 C 369.875 358.488281 370.238281 358.453125 370.605469 358.429688 C 371.371094 358.371094 372.140625 358.316406 372.902344 358.246094 C 373.328125 358.207031 373.753906 358.160156 374.175781 358.117188 C 374.882812 358.046875 375.589844 357.976562 376.289062 357.894531 C 376.726562 357.84375 377.160156 357.785156 377.59375 357.730469 C 378.289062 357.644531 378.980469 357.554688 379.671875 357.453125 C 380.097656 357.394531 380.519531 357.328125 380.945312 357.265625 C 381.648438 357.15625 382.351562 357.042969 383.054688 356.925781 C 383.453125 356.859375 383.851562 356.789062 384.25 356.71875 C 384.988281 356.585938 385.726562 356.445312 386.464844 356.300781 C 386.816406 356.230469 387.167969 356.164062 387.519531 356.089844 C 388.332031 355.921875 389.140625 355.746094 389.949219 355.566406 C 390.21875 355.503906 390.484375 355.445312 390.753906 355.386719 C 391.730469 355.160156 392.703125 354.921875 393.675781 354.671875 C 393.769531 354.648438 393.863281 354.628906 393.957031 354.601562 C 449.789062 340.183594 491.914062 290.132812 494.199219 230.570312 C 496.292969 176.125 465.761719 128.597656 420.578125 105.9375" fill="inherit"/></g></g></svg>