<?xml version="1.0" encoding="UTF-8" standalone="no"?><svg xmlns="http://www.w3.org/2000/svg" xmlns:xlink="http://www.w3.org/1999/xlink" clip-rule="evenodd" fill="#000000" fill-rule="evenodd" height="4234" image-rendering="optimizeQuality" preserveAspectRatio="xMidYMid meet" shape-rendering="geometricPrecision" text-rendering="geometricPrecision" version="1" viewBox="2455.0 2455.0 4234.0 4234.0" width="4234" zoomAndPan="magnify"><defs><linearGradient gradientUnits="userSpaceOnUse" id="a" x1="8595.4" x2="548.64" xlink:actuate="onLoad" xlink:show="other" xlink:type="simple" y1="8595.4" y2="548.63"><stop offset="0" stop-color="#ffffff"/><stop offset="1" stop-color="#ffffff"/></linearGradient></defs><g id="change1_1"><path d="m3345 2455h2454c245 0 467 100 628 262 162 161 262 383 262 628v2454c0 245-100 467-262 628-161 162-383 262-628 262h-2454c-245 0-467-100-628-262-162-161-262-383-262-628v-2454c0-245 100-467 262-628 161-162 383-262 628-262zm2521 694c48 0 88 40 88 88 0 49-40 88-88 88-49 0-88-39-88-88 0-48 39-88 88-88zm-1294 241c653 0 1182 529 1182 1182s-529 1182-1182 1182-1182-529-1182-1182 529-1182 1182-1182zm1013 1182c0-559-454-1013-1013-1013s-1013 454-1013 1013 454 1013 1013 1013 1013-454 1013-1013zm214-1947h-2454c-198 0-378 81-509 211-130 131-211 311-211 509v2454c0 198 81 378 211 509 131 130 311 211 509 211h2454c198 0 378-81 509-211 130-131 211-311 211-509v-2454c0-198-81-378-211-509-131-130-311-211-509-211z" fill="#ffffff" fill-rule="nonzero"/></g></svg>