<?xml version="1.0" encoding="UTF-8" standalone="no"?><svg xmlns="http://www.w3.org/2000/svg" xmlns:xlink="http://www.w3.org/1999/xlink" fill="#ffebeb" height="121.7" preserveAspectRatio="xMidYMid meet" version="1" viewBox="8.8 9.0 121.7 121.7" width="121.7" zoomAndPan="magnify"><g id="change1_1"><path d="M68.284,76.432c-5.168-4.25-8.619-9.494-10.433-12.478l-1.353-2.551c0.473-0.508,4.081-4.372,5.645-6.468 c1.965-2.632-0.884-5.01-0.884-5.01s-8.017-8.018-9.844-9.608c-1.827-1.593-3.93-0.708-3.93-0.708 c-3.84,2.481-7.821,4.638-8.059,15.012c-0.009,9.713,7.364,19.73,15.337,27.486c7.986,8.759,18.951,17.537,29.551,17.527 c10.373-0.236,12.529-4.217,15.011-8.057c0,0,0.885-2.102-0.706-3.93c-1.592-1.828-9.61-9.846-9.61-9.846S86.633,74.952,84,76.919 c-1.963,1.468-5.486,4.729-6.335,5.521C77.666,82.441,71.771,79.299,68.284,76.432z" fill="inherit"/></g><g id="change1_2"><path d="M69.664,130.665c-33.543,0-60.833-27.29-60.833-60.835c0-33.544,27.29-60.834,60.833-60.834 c33.545,0,60.836,27.29,60.836,60.834C130.5,103.375,103.209,130.665,69.664,130.665z M69.664,14.996 c-30.235,0-54.833,24.599-54.833,54.834c0,30.236,24.598,54.835,54.833,54.835c30.236,0,54.836-24.599,54.836-54.835 C124.5,39.595,99.9,14.996,69.664,14.996z" fill="inherit"/></g></svg>